<svg width="86" height="24" viewBox="0 0 86 24" fill="none" xmlns="http://www.w3.org/2000/svg">
<g id="_Client logo" clip-path="url(#clip0_218_858)">
<g id="Layer 2">
<g id="Group">
<path id="Vector" d="M9.31334 3.97266V10.7424H2.99819V3.97266H0V20.1327H2.99819V13.5828H9.31334V20.1327H12.3115V3.97266H9.31334Z" fill="#33475B"/>
<path id="Vector_2" d="M21.9072 14.9089C21.9072 15.5566 21.6459 16.1777 21.1807 16.6356C20.7156 17.0936 20.0847 17.3508 19.4269 17.3508C18.769 17.3508 18.1381 17.0936 17.673 16.6356C17.2078 16.1777 16.9465 15.5566 16.9465 14.9089V7.9873H14.1025V14.9089C14.1025 16.2978 14.663 17.6298 15.6605 18.6119C16.658 19.5939 18.011 20.1457 19.4217 20.1457C20.8325 20.1457 22.1854 19.5939 23.1829 18.6119C24.1805 17.6298 24.7409 16.2978 24.7409 14.9089V7.9873H21.9072V14.9089Z" fill="#33475B"/>
<path id="Vector_3" d="M42.9779 8.70035C42.9779 7.28161 43.9312 6.83183 44.9757 6.83183C45.8174 6.83183 46.9294 7.46238 47.6566 8.22743L49.5192 6.06678C48.5894 4.82882 46.7032 3.97266 45.1593 3.97266C42.0744 3.97266 39.8431 5.75151 39.8431 8.70035C39.8431 14.1714 46.6356 12.4359 46.6356 15.4976C46.6356 16.442 45.7043 17.2764 44.6378 17.2764C42.9558 17.2764 42.4108 16.4665 41.6381 15.6104L39.5713 17.7262C40.8934 19.3243 42.5239 20.1356 44.4777 20.1356C47.4083 20.1356 49.766 18.3351 49.766 15.5207C49.766 9.44659 42.9735 11.3339 42.9735 8.70035" fill="#33475B"/>
<path id="Vector_4" d="M84.9995 17.5512C83.319 17.5512 82.8416 16.8353 82.8416 15.7391V10.887H85.4535V8.42844H82.8416V5.18457L79.958 6.45869V16.3421C79.958 18.8701 81.7296 20.1443 84.1593 20.1443C84.5403 20.1511 84.9212 20.1211 85.2963 20.0546L85.9999 17.5049C85.6826 17.5266 85.3183 17.5483 84.9995 17.5483" fill="#33475B"/>
<path id="Vector_5" d="M32.7323 8.06813C31.3235 8.06813 30.3408 8.47018 29.3903 9.38853V4.06934H26.542V13.9282C26.542 17.619 29.2523 20.1469 32.2975 20.1469C35.6761 20.1469 38.6479 17.5741 38.6479 14.109C38.6479 10.6872 35.9126 8.06958 32.7323 8.06958V8.06813ZM32.7146 17.3254C32.0755 17.3254 31.4506 17.1388 30.9192 16.7892C30.3877 16.4396 29.9735 15.9426 29.7289 15.3613C29.4843 14.7799 29.4203 14.1402 29.545 13.523C29.6697 12.9058 29.9775 12.3389 30.4295 11.8939C30.8814 11.4489 31.4573 11.1459 32.0842 11.0231C32.7111 10.9004 33.3609 10.9634 33.9514 11.2042C34.5419 11.445 35.0466 11.8528 35.4018 12.376C35.7569 12.8993 35.9464 13.5144 35.9464 14.1437C35.9464 14.9875 35.6059 15.7968 34.9998 16.3935C34.3938 16.9902 33.5718 17.3254 32.7146 17.3254Z" fill="#33475B"/>
<path id="Vector_6" d="M63.6596 13.9618C63.6596 10.4909 60.6937 7.92383 57.3092 7.92383C54.264 7.92383 51.5537 10.4518 51.5537 14.1426V24.0072H54.4021V18.6808C55.351 19.5977 56.3352 20.0012 57.7425 20.0012C60.9229 20.0012 63.6581 17.385 63.6581 13.9618H63.6596ZM60.9625 13.9271C60.9625 14.5564 60.773 15.1715 60.4179 15.6947C60.0628 16.2179 59.558 16.6258 58.9675 16.8666C58.377 17.1074 57.7272 17.1704 57.1003 17.0476C56.4734 16.9249 55.8975 16.6218 55.4456 16.1769C54.9936 15.7319 54.6858 15.165 54.5611 14.5478C54.4364 13.9306 54.5004 13.2909 54.745 12.7095C54.9896 12.1281 55.4038 11.6312 55.9353 11.2816C56.4668 10.932 57.0916 10.7454 57.7308 10.7454C58.5879 10.7454 59.4099 11.0806 60.016 11.6773C60.622 12.274 60.9625 13.0832 60.9625 13.9271Z" fill="#33475B"/>
</g>
<path id="Vector_7" d="M72.8616 7.78787V4.97063C73.2398 4.79667 73.56 4.52054 73.785 4.17438C74.0099 3.82823 74.1304 3.42628 74.1323 3.01535V2.95027C74.1323 2.37493 73.9001 1.82315 73.4869 1.41632C73.0737 1.00949 72.5132 0.780939 71.9288 0.780939H71.8627C71.2783 0.780939 70.7179 1.00949 70.3046 1.41632C69.8914 1.82315 69.6593 2.37493 69.6593 2.95027V3.01535C69.6612 3.42628 69.7817 3.82823 70.0066 4.17438C70.2316 4.52054 70.5518 4.79667 70.9299 4.97063V7.78787C69.843 7.95157 68.8194 8.3951 67.9626 9.07356L60.1153 3.05584C60.1708 2.8574 60.2004 2.6528 60.2034 2.44698C60.2043 1.96352 60.0595 1.49067 59.7874 1.08823C59.5153 0.685791 59.128 0.371847 58.6746 0.186108C58.2212 0.000369021 57.7221 -0.0488204 57.2403 0.0447614C56.7585 0.138343 56.3158 0.370492 55.968 0.711844C55.6203 1.0532 55.3831 1.48842 55.2867 1.96245C55.1902 2.43649 55.2387 2.92805 55.426 3.37496C55.6133 3.82186 55.9311 4.20404 56.339 4.47314C56.747 4.74224 57.2268 4.88618 57.7179 4.88675C58.1473 4.88486 58.5687 4.77217 58.9401 4.55991L66.6684 10.4793C65.974 11.5118 65.6117 12.7264 65.6287 13.9647C65.6457 15.203 66.0413 16.4075 66.7639 17.4211L64.4135 19.7351C64.2235 19.6753 64.0254 19.6436 63.8259 19.6411C63.4228 19.6414 63.0288 19.7593 62.6937 19.98C62.3586 20.2007 62.0975 20.5142 61.9434 20.8809C61.7892 21.2477 61.749 21.6511 61.8277 22.0404C61.9064 22.4296 62.1006 22.7872 62.3857 23.0678C62.6707 23.3485 63.0339 23.5396 63.4293 23.6171C63.8246 23.6946 64.2345 23.655 64.607 23.5033C64.9795 23.3515 65.298 23.0944 65.5221 22.7646C65.7463 22.4347 65.8661 22.0468 65.8664 21.6499C65.8638 21.4534 65.8316 21.2585 65.7709 21.0714L68.0963 18.782C68.8545 19.3565 69.7363 19.7525 70.674 19.9397C71.6117 20.1268 72.5805 20.1003 73.5061 19.8619C74.4318 19.6236 75.2897 19.1799 76.0143 18.5647C76.7389 17.9495 77.3108 17.1793 77.6864 16.3129C78.0619 15.4465 78.231 14.507 78.1808 13.5664C78.1306 12.6257 77.8624 11.7088 77.3967 10.886C76.931 10.0631 76.2802 9.35614 75.4941 8.81913C74.7081 8.28212 73.8076 7.92936 72.8616 7.78787ZM71.898 17.0523C71.2619 17.0518 70.6403 16.8656 70.1116 16.5173C69.583 16.169 69.1711 15.6742 68.928 15.0955C68.685 14.5168 68.6216 13.8801 68.7459 13.266C68.8703 12.6518 69.1767 12.0878 69.6266 11.6451C70.0765 11.2023 70.6496 10.9009 71.2735 10.7787C71.8974 10.6566 72.544 10.7193 73.1317 10.9589C73.7194 11.1984 74.2218 11.6042 74.5753 12.1248C74.9288 12.6454 75.1177 13.2574 75.118 13.8837C75.118 14.7237 74.779 15.5293 74.1757 16.1232C73.5724 16.7172 72.7541 17.0509 71.9009 17.0509" fill="#FF7A59"/>
</g>
</g>
<defs>
<clipPath id="clip0_218_858">
<rect width="86" height="24" fill="white"/>
</clipPath>
</defs>
</svg>
