<svg width="90" height="28" viewBox="0 0 90 28" fill="none" xmlns="http://www.w3.org/2000/svg">
<g id="_Client logo" clip-path="url(#clip0_218_856)">
<path id="Vector" d="M25.7997 19.8442C25.6585 19.503 25.5262 19.1442 25.385 18.838L24.7321 17.3767L24.7056 17.3505C22.7644 13.1505 20.6909 8.88047 18.4938 4.68047L18.4056 4.50547C18.185 4.09422 17.9644 3.63922 17.735 3.21922C17.4527 2.72047 17.1791 2.18672 16.7291 1.67922C16.2905 1.14821 15.7385 0.720384 15.1128 0.426617C14.4872 0.13285 13.8037 -0.0195312 13.1115 -0.0195312C12.4193 -0.0195312 11.7357 0.13285 11.1101 0.426617C10.4845 0.720384 9.93248 1.14821 9.49384 1.67922C9.07913 2.18672 8.77031 2.72047 8.48796 3.21922C8.26737 3.67422 8.04678 4.12047 7.81737 4.53172L7.72913 4.70672C5.56737 8.90672 3.45854 13.1767 1.51737 17.3767L1.46443 17.4292C1.27031 17.8842 1.0409 18.3567 0.820308 18.8642C0.679131 19.1705 0.537955 19.503 0.396779 19.8705C0.0156308 20.8328 -0.106082 21.877 0.0436364 22.9001C0.193354 23.9233 0.609335 24.8901 1.25058 25.7053C1.89183 26.5205 2.73621 27.1559 3.70051 27.549C4.6648 27.942 5.71573 28.0791 6.74972 27.9467C7.74102 27.8173 8.69555 27.4899 9.5556 26.9842C10.7027 26.3455 11.8056 25.418 13.0409 24.0792C14.2762 25.418 15.4056 26.3455 16.5262 26.993C17.6038 27.6202 18.8242 27.9664 20.0732 27.9992C21.5197 28.0052 22.9196 27.492 24.0143 26.5543C25.109 25.6167 25.8246 24.318 26.0291 22.898C26.2655 21.8775 26.1855 20.8101 25.7997 19.8355V19.8442ZM13.1291 21.2967C11.6115 19.3717 10.6232 17.6042 10.288 16.0905C10.149 15.5295 10.1191 14.9475 10.1997 14.3755C10.2615 13.9292 10.4291 13.5355 10.6585 13.203C11.188 12.4417 12.1144 11.9692 13.1291 11.9692C13.611 11.9546 14.089 12.0589 14.5202 12.2727C14.9514 12.4865 15.3224 12.8032 15.5997 13.1942C15.8291 13.5442 15.9968 13.9292 16.0497 14.3755C16.138 14.883 16.1027 15.4692 15.9615 16.0905C15.6262 17.578 14.638 19.363 13.1291 21.2967ZM24.3703 22.5917C24.2701 23.3127 23.9811 23.995 23.5321 24.5707C23.0831 25.1464 22.4899 25.5954 21.8115 25.873C21.1409 26.153 20.3997 26.2317 19.6762 26.153C18.9703 26.0655 18.2644 25.838 17.5409 25.418C16.3396 24.6817 15.2594 23.7668 14.338 22.7055C16.1909 20.4305 17.3115 18.3567 17.735 16.5105C17.938 15.6355 17.9644 14.848 17.8762 14.1217C17.766 13.4333 17.5072 12.7767 17.1174 12.1967C16.6723 11.5678 16.0783 11.057 15.3874 10.7091C14.6966 10.3613 13.9302 10.187 13.1556 10.2017C11.5232 10.2017 10.0674 10.9542 9.18501 12.188C8.78781 12.7665 8.53111 13.4284 8.43501 14.1217C8.32031 14.8567 8.34678 15.6705 8.57619 16.5105C8.99972 18.3567 10.1468 20.4567 11.9732 22.723C11.0675 23.8046 9.98475 24.7275 8.77031 25.453C8.03795 25.873 7.3409 26.0917 6.63501 26.1792C5.53726 26.3187 4.42838 26.0228 3.54939 25.3559C2.6704 24.6891 2.09235 23.7051 1.9409 22.618C1.85266 21.918 1.91443 21.218 2.19678 20.4305C2.28501 20.1505 2.41737 19.8705 2.55854 19.538C2.75266 19.083 2.98207 18.6105 3.20266 18.138L3.23796 18.0767C5.14384 13.903 7.22619 9.64172 9.38796 5.46797L9.47619 5.29297C9.69678 4.87297 9.91737 4.42672 10.1468 4.00672C10.3762 3.56047 10.6232 3.13172 10.9409 2.78172C11.2158 2.45624 11.5594 2.19448 11.9474 2.01488C12.3354 1.83528 12.7583 1.74221 13.1865 1.74221C13.6146 1.74221 14.0376 1.83528 14.4256 2.01488C14.8136 2.19448 15.1571 2.45624 15.4321 2.78172C15.7409 3.13172 15.9968 3.56047 16.2262 4.00672C16.4468 4.42672 16.6674 4.88172 16.8968 5.29297L16.985 5.46797C19.138 9.64172 21.2203 13.903 23.1615 18.0767L23.188 18.103C23.4174 18.558 23.6115 19.0655 23.8321 19.503C23.9732 19.8442 24.1144 20.1155 24.2027 20.4042C24.3703 21.1917 24.4585 21.8917 24.3703 22.5917ZM36.6527 21.1042C35.9878 21.1139 35.3292 20.9749 34.7259 20.6977C34.1225 20.4205 33.5898 20.0122 33.1674 19.503C32.218 18.4179 31.7142 17.0189 31.7556 15.583C31.7411 14.1158 32.2612 12.6927 33.2203 11.5755C33.664 11.0598 34.2162 10.6468 34.8382 10.3656C35.4602 10.0844 36.1368 9.94184 36.8203 9.94797C37.4635 9.93051 38.1006 10.0755 38.6717 10.3694C39.2428 10.6633 39.7291 11.0964 40.085 11.628L40.1732 10.2542H42.7497V20.8242H40.1644L40.0762 19.2842C39.7093 19.8518 39.2022 20.3169 38.603 20.6355C38.0038 20.954 37.3324 21.1154 36.6527 21.1042ZM37.3232 18.5842C37.835 18.5842 38.285 18.4442 38.7085 18.1905C39.0968 17.9105 39.4144 17.543 39.6615 17.0967C39.8821 16.6505 39.9968 16.1167 39.9968 15.5217C40.0312 15.0049 39.9297 14.4882 39.7024 14.0219C39.475 13.5556 39.1296 13.1559 38.6997 12.8617C38.2867 12.6065 37.8099 12.4713 37.3232 12.4713C36.8366 12.4713 36.3598 12.6065 35.9468 12.8617C35.5585 13.1417 35.2409 13.5092 34.9938 13.9555C34.7605 14.4476 34.6457 14.9868 34.6585 15.5305C34.6241 16.0472 34.7256 16.564 34.9529 17.0303C35.1803 17.4965 35.5258 17.8963 35.9556 18.1905C36.3703 18.4442 36.8203 18.5842 37.3232 18.5842ZM47.1615 7.40172C47.1615 7.70797 47.1085 7.98797 46.9674 8.21547C46.8262 8.43422 46.6321 8.63547 46.3762 8.77547C46.1203 8.91547 45.8468 8.96797 45.5644 8.96797C45.2821 8.96797 44.9997 8.91547 44.7438 8.77547C44.5018 8.64187 44.2983 8.44909 44.1527 8.21547C44.016 7.96621 43.949 7.68527 43.9585 7.40172C43.9585 7.08672 44.0203 6.80672 44.1527 6.58797C44.2938 6.32547 44.4968 6.16797 44.7438 6.02797C44.9997 5.88797 45.2732 5.82672 45.5644 5.82672C45.8453 5.8203 46.123 5.88627 46.3705 6.01816C46.6179 6.15006 46.8266 6.34338 46.9762 6.57922C47.1046 6.83432 47.1682 7.11668 47.1615 7.40172ZM44.1615 20.7892V10.2367H46.9674V20.8067H44.1527L44.1615 20.7892ZM54.4674 13.0017V13.0367C54.335 12.9755 54.1585 12.9492 54.0262 12.923C53.8497 12.888 53.7085 12.888 53.5409 12.888C52.7556 12.888 52.1644 13.1155 51.7762 13.588C51.3527 14.0692 51.1585 14.743 51.1585 15.6092V20.798H48.3438V10.228H50.9291L51.0174 11.8292C51.2997 11.2692 51.635 10.8492 52.1115 10.5342C52.5854 10.2282 53.1434 10.0753 53.7085 10.0967C53.9115 10.0967 54.1056 10.1142 54.2732 10.1492C54.3615 10.1755 54.4144 10.1755 54.4674 10.2017V13.0017ZM55.5968 20.7892V5.89672H58.4027V11.5842C58.7997 11.0767 59.2497 10.683 59.8144 10.3767C60.7084 9.94205 61.724 9.81875 62.6973 10.0267C63.6707 10.2347 64.545 10.7618 65.1791 11.523C66.1306 12.6102 66.6346 14.0128 66.5909 15.4517C66.6054 16.9189 66.0853 18.342 65.1262 19.4592C64.6825 19.9749 64.1303 20.3879 63.5083 20.6691C62.8863 20.9503 62.2097 21.0928 61.5262 21.0867C60.883 21.1042 60.2459 20.9591 59.6748 20.6653C59.1037 20.3714 58.6174 19.9383 58.2615 19.4067L58.1733 20.7805L55.5968 20.8067V20.7892ZM61.0233 18.5842C61.5262 18.5842 61.9762 18.4442 62.3997 18.1905C62.788 17.9105 63.1056 17.543 63.3527 17.0967C63.5821 16.6505 63.688 16.1167 63.688 15.5217C63.688 14.9355 63.5821 14.4017 63.3527 13.9555C63.121 13.5252 62.7954 13.1515 62.3997 12.8617C61.9867 12.6065 61.5099 12.4713 61.0233 12.4713C60.5366 12.4713 60.0598 12.6065 59.6468 12.8617C59.2497 13.1417 58.9409 13.5092 58.685 13.9555C58.4517 14.4476 58.3369 14.9868 58.3497 15.5305C58.3153 16.0472 58.4168 16.564 58.6441 17.0303C58.8715 17.4965 59.2169 17.8963 59.6468 18.1905C60.0615 18.4442 60.5115 18.5842 61.0233 18.5842ZM67.6497 20.798V10.228H70.235L70.3232 11.6017C70.6481 11.0751 71.109 10.6442 71.6581 10.3534C72.2073 10.0627 72.8248 9.9227 73.4468 9.94797C74.158 9.93579 74.8571 10.1318 75.4566 10.5116C76.0562 10.8913 76.5295 11.4379 76.8174 12.083C77.1262 12.748 77.2938 13.5705 77.2938 14.4892V20.8242H74.4791V14.8567C74.4791 14.1217 74.3115 13.5442 73.9762 13.1155C73.6409 12.6955 73.1821 12.468 72.5997 12.468C72.1762 12.468 71.8056 12.5555 71.4791 12.748C71.1703 12.9492 70.9144 13.203 70.7203 13.5617C70.524 13.9244 70.4267 14.3316 70.438 14.743V20.798H67.6497ZM78.6968 20.798V5.88797H81.5115V11.5755C81.8927 11.0651 82.3887 10.65 82.96 10.3629C83.5313 10.0758 84.1622 9.92477 84.8027 9.92172C85.4676 9.91207 86.1261 10.051 86.7295 10.3282C87.3328 10.6054 87.8655 11.0138 88.288 11.523C89.2326 12.6102 89.7331 14.0085 89.6909 15.443C89.7062 16.9103 89.186 18.3336 88.2262 19.4505C87.7825 19.9662 87.2303 20.3792 86.6083 20.6604C85.9863 20.9415 85.3097 21.0841 84.6262 21.078C83.983 21.0954 83.3459 20.9504 82.7748 20.6565C82.2037 20.3626 81.7174 19.9295 81.3615 19.398L81.2821 20.7717L78.6968 20.798ZM84.1497 18.5842C84.6615 18.5842 85.1115 18.4442 85.5262 18.1905C85.9233 17.9105 86.2321 17.543 86.488 17.0967C86.7085 16.6505 86.8233 16.1167 86.8233 15.5217C86.8577 15.0049 86.7562 14.4882 86.5289 14.0219C86.3015 13.5556 85.956 13.1559 85.5262 12.8617C85.1132 12.6065 84.6363 12.4713 84.1497 12.4713C83.6631 12.4713 83.1862 12.6065 82.7732 12.8617C82.385 13.1417 82.0674 13.5092 81.8203 13.9555C81.574 14.4432 81.4585 14.9856 81.485 15.5305C81.4506 16.0472 81.5521 16.564 81.7794 17.0303C82.0068 17.4965 82.3522 17.8963 82.7821 18.1905C83.1968 18.4442 83.6203 18.5842 84.1497 18.5842Z" fill="#FF385C"/>
</g>
<defs>
<clipPath id="clip0_218_856">
<rect width="90" height="28" fill="white"/>
</clipPath>
</defs>
</svg>
