<svg width="122" height="26" viewBox="0 0 122 26" fill="none" xmlns="http://www.w3.org/2000/svg">
<g id="_Client logo" clip-path="url(#clip0_218_875)">
<path id="Vector" d="M43.0631 14.9753L42.336 17.0311H42.2754C42.1542 16.5675 41.932 15.8621 41.5684 15.0156L37.6701 5.24042H33.8525V20.8203H36.3774V11.2063C36.3774 10.6017 36.3774 9.91639 36.3572 9.06987C36.337 8.64662 36.2966 8.32414 36.2764 8.08228H36.337C36.4582 8.68693 36.5996 9.13034 36.7006 9.41251L41.3866 20.78H43.1641L47.8098 9.31173C47.9108 9.04972 48.0118 8.52569 48.1128 8.08228H48.1734C48.1128 9.23111 48.0724 10.259 48.0522 10.8838V20.7598H50.7386V5.20011H47.0625L43.0631 14.9753ZM53.2837 9.5939H55.9095V20.7598H53.2837V9.5939ZM54.6168 4.87763C54.1724 4.87763 53.8088 5.03887 53.5058 5.32104C53.2029 5.60321 53.0413 5.966 53.0413 6.40941C53.0413 6.83266 53.2029 7.19546 53.5058 7.47763C53.8088 7.7598 54.1724 7.90088 54.6168 7.90088C55.0611 7.90088 55.4449 7.73964 55.7277 7.47763C56.0307 7.19546 56.1923 6.83266 56.1923 6.40941C56.1923 5.98615 56.0307 5.62336 55.7277 5.32104C55.4651 5.03887 55.0813 4.87763 54.6168 4.87763ZM65.2211 9.49313C64.7363 9.39235 64.2313 9.33189 63.7466 9.33189C62.5549 9.33189 61.4641 9.59391 60.5552 10.1179C59.6462 10.642 58.9191 11.3675 58.4545 12.2745C57.9698 13.2017 57.7274 14.2699 57.7274 15.4993C57.7274 16.5675 57.9698 17.5148 58.4343 18.3815C58.8989 19.228 59.5453 19.9133 60.4138 20.3769C61.2419 20.8404 62.2115 21.0823 63.3022 21.0823C64.5545 21.0823 65.6251 20.8203 66.4734 20.3365L66.4936 20.3164V17.8978L66.3926 17.9784C66.0088 18.2606 65.5645 18.5024 65.1201 18.6435C64.6555 18.8048 64.2313 18.8854 63.8678 18.8854C62.8174 18.8854 61.9893 18.5831 61.4035 17.9179C60.7976 17.273 60.4946 16.3862 60.4946 15.2776C60.4946 14.1288 60.7976 13.2218 61.4237 12.5567C62.0499 11.8916 62.878 11.5489 63.888 11.5489C64.7363 11.5489 65.6049 11.8311 66.3926 12.3955L66.4936 12.4761V9.91639L66.4734 9.89623C66.13 9.75515 65.7462 9.5939 65.2211 9.49313ZM73.8863 9.41251C73.2399 9.41251 72.634 9.61406 72.1088 10.0373C71.6645 10.4001 71.3615 10.9241 71.0989 11.5489H71.0787V9.5939H68.4529V20.7598H71.0787V15.0559C71.0787 14.0885 71.2807 13.2823 71.7251 12.6978C72.1694 12.0931 72.735 11.7908 73.4217 11.7908C73.6641 11.7908 73.9065 11.8513 74.2095 11.8916C74.4923 11.9722 74.6943 12.0528 74.8356 12.1536L74.9366 12.2342V9.61406L74.876 9.5939C74.6943 9.47297 74.3307 9.41251 73.8863 9.41251ZM81.0366 9.35205C79.1986 9.35205 77.7241 9.89623 76.6939 10.9644C75.6436 12.0327 75.1386 13.504 75.1386 15.3582C75.1386 17.0916 75.6638 18.5024 76.6737 19.5303C77.6837 20.5381 79.0572 21.0621 80.7741 21.0621C82.5717 21.0621 84.0058 20.5179 85.036 19.4296C86.0863 18.3412 86.5913 16.89 86.5913 15.0962C86.5913 13.3226 86.1065 11.9117 85.1168 10.8838C84.1674 9.85592 82.7737 9.35205 81.0366 9.35205ZM83.1373 17.9381C82.6525 18.5629 81.885 18.8652 80.9356 18.8652C79.9863 18.8652 79.2188 18.5629 78.6734 17.8978C78.128 17.273 77.8654 16.366 77.8654 15.2172C77.8654 14.028 78.1482 13.121 78.6734 12.4761C79.2188 11.8311 79.9661 11.5086 80.9154 11.5086C81.8446 11.5086 82.5717 11.811 83.0969 12.4358C83.6221 13.0606 83.9049 13.9675 83.9049 15.1567C83.8645 16.366 83.6423 17.3133 83.1373 17.9381ZM92.4489 14.2296C91.6207 13.8869 91.0956 13.6249 90.8532 13.4032C90.6512 13.2017 90.5502 12.9195 90.5502 12.5567C90.5502 12.2544 90.6714 11.952 90.9744 11.7505C91.2774 11.5489 91.6207 11.4482 92.1257 11.4482C92.5701 11.4482 93.0346 11.5288 93.479 11.6497C93.9234 11.7706 94.3274 11.952 94.6505 12.1939L94.7515 12.2745V9.81561L94.6909 9.79546C94.388 9.67453 93.984 9.5536 93.4992 9.45282C93.0145 9.3722 92.5701 9.33189 92.2065 9.33189C90.9542 9.33189 89.9241 9.63421 89.1161 10.2993C88.3082 10.9241 87.9244 11.7706 87.9244 12.7582C87.9244 13.2823 88.0052 13.7458 88.187 14.1288C88.3688 14.5117 88.6313 14.8745 88.9949 15.1769C89.3585 15.459 89.8837 15.7815 90.6108 16.0838C91.2168 16.3458 91.6813 16.5474 91.9641 16.7086C92.2469 16.8699 92.4287 17.0513 92.5701 17.1924C92.6711 17.3536 92.7317 17.5551 92.7317 17.8172C92.7317 18.5629 92.1661 18.9257 91.0148 18.9257C90.5704 18.9257 90.1058 18.8451 89.5605 18.6637C89.0151 18.4823 88.5101 18.2203 88.086 17.9179L87.985 17.8373V20.397L88.0456 20.4172C88.4294 20.5986 88.8939 20.7195 89.4595 20.8606C90.025 20.9613 90.53 21.042 90.9744 21.042C92.3277 21.042 93.4386 20.7396 94.2264 20.0745C95.0343 19.4296 95.4585 18.6032 95.4585 17.535C95.4585 16.7893 95.2565 16.1241 94.8121 15.6203C94.2264 15.1365 93.4992 14.6327 92.4489 14.2296ZM102.387 9.35205C100.549 9.35205 99.0741 9.89623 98.0439 10.9644C97.0138 12.0327 96.4886 13.504 96.4886 15.3582C96.4886 17.0916 97.0138 18.5024 98.0237 19.5303C99.0337 20.5381 100.407 21.0621 102.124 21.0621C103.922 21.0621 105.356 20.5179 106.386 19.4296C107.436 18.3412 107.941 16.89 107.941 15.0962C107.941 13.3226 107.456 11.9117 106.467 10.8838C105.517 9.85592 104.124 9.35205 102.387 9.35205ZM104.467 17.9381C103.982 18.5629 103.215 18.8652 102.265 18.8652C101.296 18.8652 100.549 18.5629 100.003 17.8978C99.4578 17.273 99.1952 16.366 99.1952 15.2172C99.1952 14.028 99.478 13.121 100.003 12.4761C100.549 11.8311 101.296 11.5086 102.245 11.5086C103.154 11.5086 103.902 11.811 104.427 12.4358C104.952 13.0606 105.235 13.9675 105.235 15.1567C105.235 16.366 104.972 17.3133 104.467 17.9381ZM121.979 11.7505V9.5939H119.333V6.28848L119.253 6.30863L116.748 7.05437L116.687 7.07453V9.5939H112.728V8.18305C112.728 7.53809 112.89 7.03422 113.173 6.71173C113.456 6.38925 113.88 6.22801 114.405 6.22801C114.768 6.22801 115.152 6.30863 115.576 6.49003L115.677 6.55049V4.27298L115.617 4.25282C115.253 4.13189 114.768 4.05127 114.142 4.05127C113.355 4.05127 112.668 4.23266 112.042 4.53499C111.415 4.87763 110.951 5.34119 110.607 5.966C110.264 6.57065 110.082 7.25592 110.082 8.04197V9.5939H108.244V11.7303H110.082V20.7598H112.728V11.7505H116.687V17.4947C116.687 19.8528 117.798 21.042 120.02 21.042C120.384 21.042 120.767 20.9815 121.131 20.921C121.515 20.8404 121.798 20.7396 121.959 20.659L121.979 20.6389V18.4823L121.878 18.5629C121.717 18.6637 121.575 18.7443 121.333 18.8048C121.131 18.8652 120.949 18.8854 120.808 18.8854C120.283 18.8854 119.919 18.7644 119.657 18.4621C119.414 18.18 119.293 17.7164 119.293 17.0311V11.7505H121.979Z" fill="#737373"/>
<path id="Vector_2" d="M0 0H12.3818V12.355H0V0Z" fill="#F25022"/>
<path id="Vector_3" d="M13.6748 0H26.0566V12.355H13.6748V0Z" fill="#7FBA00"/>
<path id="Vector_4" d="M0 13.645H12.3818V26.0001H0V13.645Z" fill="#00A4EF"/>
<path id="Vector_5" d="M13.6748 13.645H26.0566V26.0001H13.6748V13.645Z" fill="#FFB900"/>
</g>
<defs>
<clipPath id="clip0_218_875">
<rect width="122" height="26" fill="white"/>
</clipPath>
</defs>
</svg>
