<svg width="112" height="26" viewBox="0 0 112 26" fill="none" xmlns="http://www.w3.org/2000/svg">
<g id="_Client logo" clip-path="url(#clip0_218_881)">
<path id="Shape" d="M39.8578 9.24802V10.7215H39.9032C40.4382 9.9326 41.3264 9.00353 43.2949 9.00353C44.8265 9.00353 46.0013 9.77612 46.5048 10.9432H46.5503C46.9804 10.3531 47.4734 9.90652 48.0259 9.59031C48.6797 9.21542 49.407 9.00027 50.3231 9.00027C52.3966 9.00027 54.2323 10.3368 54.2323 13.7076V20.1002H51.0714V14.1542C51.0714 12.446 50.449 11.4582 49.1553 11.4582C48.2077 11.4582 47.5188 12.0515 47.2566 12.7818C47.1657 13.0328 47.1237 13.3751 47.1237 13.6619V20.1035H43.9628V13.9129C43.9628 12.4623 43.3649 11.455 42.0886 11.455C41.0676 11.455 40.4277 12.2048 40.1655 12.847C40.0536 13.1208 40.0186 13.437 40.0186 13.7336V20.1002H36.8542V9.24802H39.8578ZM70.5475 9.24802V11.2952H70.6349C71.2153 9.73049 72.593 9.00353 73.8028 9.00353C74.107 9.00353 74.2748 9.02635 74.5196 9.07198V11.9146C74.2294 11.8755 73.9602 11.8364 73.5825 11.8364C72.2119 11.8364 71.2573 12.5796 71.016 13.7434C70.9636 13.9847 70.9461 14.2455 70.9461 14.5454V20.1035H67.7012V9.24802H70.5475ZM78.9253 5.65234V9.06872H81.6667V11.8331H78.9253V15.9113C78.9253 17.2315 79.2855 17.8705 80.3554 17.8705C80.859 17.8705 81.2296 17.8118 81.5513 17.7368L81.5932 20.0285C81.1632 20.1785 80.247 20.3415 79.317 20.3415C78.2225 20.3415 77.3099 19.9861 76.7539 19.4352C76.1176 18.8061 75.8239 17.7759 75.8239 16.309V5.65234H78.9253ZM34.6513 20.1002H31.5044V5.65234H34.6513V20.1002ZM26.2595 16.2242C26.2595 16.4231 26.242 16.6317 26.1826 16.811C25.9378 17.564 25.1021 18.1997 24.0601 18.1997C23.1895 18.1997 22.4971 17.7401 22.4971 16.7654C22.4971 15.2756 24.2594 14.8616 26.263 14.8714V16.2242H26.2595ZM29.4029 13.6261C29.4029 11.1648 28.277 9.00353 24.4692 9.00353C22.5146 9.00353 20.9621 9.51533 20.116 9.97172L20.7349 11.9472C21.5076 11.4908 22.7419 11.1159 23.9098 11.1159C25.8434 11.1127 26.1581 12.1363 26.1581 12.7915V12.948C21.9447 12.9415 19.2838 14.3009 19.2838 17.0718C19.2838 18.7637 20.637 20.348 22.9937 20.348C24.4448 20.348 25.6546 19.8101 26.3819 18.9462H26.4518C26.4518 18.9462 26.9343 20.8207 29.5848 20.1035C29.4449 19.3211 29.3994 18.4899 29.3994 17.4891V13.6261H29.4029ZM3.47562 5.65234C3.80081 7.18124 4.72391 11.6212 4.72391 11.6212C5.11203 13.4468 5.46869 15.3603 5.73793 16.8729H5.78688C6.04912 15.2658 6.46172 13.7434 6.9023 11.8592L8.45828 5.65234H11.9024L13.357 12.0189C13.7382 13.7891 14.0424 15.155 14.2836 16.8012H14.3291C14.5913 15.1387 14.934 13.7173 15.3081 11.8983L16.7068 5.65234H20.0111L15.9165 20.1002C13.3081 20.6316 12.308 19.6536 11.9514 18.1019C11.5947 16.5469 10.8954 13.5902 10.8954 13.5902C10.5353 11.97 10.2555 10.8291 10.0597 9.16652H10.0108C9.73105 10.8128 9.43733 11.9668 9.00375 13.587L7.28692 20.1035C4.62251 20.599 3.69941 19.8655 3.1889 17.8737C2.74833 16.1688 0 5.6556 0 5.6556H3.47562V5.65234ZM62.4563 16.2242C62.4563 16.4231 62.4389 16.6317 62.3794 16.811C62.1346 17.564 61.299 18.1997 60.257 18.1997C59.3863 18.1997 58.694 17.7401 58.694 16.7654C58.694 15.2756 60.4563 14.8616 62.4598 14.8714V16.2242H62.4563ZM65.5998 13.6261C65.5998 11.1648 64.4739 9.00353 60.6661 9.00353C58.7115 9.00353 57.159 9.51533 56.3128 9.97172L56.9317 11.9472C57.7044 11.4908 58.9387 11.1159 60.1066 11.1159C62.0367 11.1127 62.3549 12.1363 62.3549 12.7915V12.948C58.145 12.9415 55.4841 14.3009 55.4841 17.0718C55.4841 18.7637 56.8408 20.348 59.194 20.348C60.6416 20.348 61.8549 19.8101 62.5787 18.9462H62.6521C62.6521 18.9462 63.1347 20.8207 65.7851 20.1035C65.6452 19.3211 65.5998 18.4899 65.5998 17.4891V13.6261Z" fill="#041E42"/>
<path id="Shape_2" d="M94.423 15.1241C94.7332 15.6517 94.7123 16.2406 94.3812 16.5096L88.6582 20.4276C88.0622 20.7646 87.1699 20.3561 86.6645 19.5017C86.1557 18.6439 86.2463 17.6874 86.8423 17.3504L93.1787 14.4705C93.576 14.3208 94.1128 14.5965 94.423 15.1241ZM101.955 15.1241C102.269 14.5965 102.802 14.3242 103.199 14.4671L109.539 17.3469C110.135 17.6839 110.222 18.6405 109.717 19.4983C109.208 20.3527 108.312 20.7578 107.72 20.4242L101.997 16.5062C101.669 16.2406 101.645 15.6483 101.955 15.1241ZM98.1872 17.2482C98.8111 17.2482 99.3234 17.5614 99.3931 17.9733L100.01 24.7745C100.01 25.4485 99.2049 26 98.1907 26C97.1799 26 96.3713 25.4485 96.3713 24.7745L96.9847 17.9733C97.0544 17.5614 97.5668 17.2482 98.1872 17.2482ZM101.997 9.49385L107.72 5.5724C108.312 5.2354 109.208 5.64048 109.717 6.4983C110.222 7.35611 110.135 8.31265 109.539 8.64965L103.199 11.5329C102.802 11.6758 102.265 11.4035 101.955 10.8759C101.645 10.3483 101.669 9.75936 101.997 9.49385ZM93.1787 11.5329L86.8423 8.64965C86.2498 8.31265 86.1592 7.35611 86.6645 6.4983C87.1699 5.64048 88.0657 5.2354 88.6582 5.5724L94.3812 9.49385C94.7123 9.75596 94.7332 10.3483 94.423 10.8759C94.1128 11.4035 93.576 11.6758 93.1787 11.5329ZM96.9847 8.02671L96.3713 1.22545C96.3713 0.551453 97.1764 0 98.1907 0C99.2049 0 100.01 0.551453 100.01 1.22545L99.3931 8.02671C99.3234 8.43519 98.8111 8.75177 98.1872 8.75177C97.5668 8.75177 97.0544 8.43519 96.9847 8.02671ZM111.264 20.4004V20.2302H111.421C111.473 20.2302 111.508 20.2642 111.508 20.3153C111.508 20.3629 111.473 20.4004 111.421 20.4004H111.264ZM111.135 20.7101C111.135 20.7272 111.149 20.7442 111.17 20.7442H111.236C111.254 20.7442 111.271 20.7272 111.271 20.7101V20.5161H111.379L111.466 20.7203C111.473 20.734 111.484 20.7442 111.498 20.7442H111.578C111.602 20.7442 111.62 20.7203 111.609 20.6965C111.578 20.6352 111.547 20.5706 111.515 20.5059C111.568 20.4889 111.648 20.4378 111.648 20.3153C111.648 20.1859 111.54 20.111 111.432 20.111H111.17C111.153 20.111 111.135 20.128 111.135 20.1451V20.7101ZM110.853 20.4276C110.853 20.1519 111.083 19.9272 111.365 19.9272C111.648 19.9272 111.878 20.1485 111.878 20.4276C111.878 20.7033 111.651 20.928 111.365 20.928C111.08 20.928 110.853 20.7033 110.853 20.4276ZM110.731 20.4276C110.731 20.768 111.013 21.0471 111.365 21.0471C111.714 21.0471 112 20.768 112 20.4276C112 20.0872 111.714 19.8081 111.365 19.8081C111.013 19.8081 110.731 20.0872 110.731 20.4276Z" fill="#FFC124"/>
</g>
<defs>
<clipPath id="clip0_218_881">
<rect width="112" height="26" fill="white"/>
</clipPath>
</defs>
</svg>
