<svg width="32" height="32" viewBox="0 0 32 32" fill="none" xmlns="http://www.w3.org/2000/svg">
<g id="Base feature icon">
<g id="Group">
<path id="Vector" d="M6.66634 1.3335H2.66634C2.31272 1.3335 1.97358 1.47397 1.72353 1.72402C1.47348 1.97407 1.33301 2.31321 1.33301 2.66683V29.3335C1.33301 29.6871 1.47348 30.0263 1.72353 30.2763C1.97358 30.5264 2.31272 30.6668 2.66634 30.6668H6.66634V1.3335Z" fill="#C4B5FD"/>
<path id="Vector_2" d="M9.33301 30.6668H22.6663V1.3335H9.33301V30.6668ZM15.9997 25.3335C15.6461 25.3335 15.3069 25.193 15.0569 24.943C14.8068 24.6929 14.6663 24.3538 14.6663 24.0002C14.6663 23.6465 14.8068 23.3074 15.0569 23.0574C15.3069 22.8073 15.6461 22.6668 15.9997 22.6668C16.3533 22.6668 16.6924 22.8073 16.9425 23.0574C17.1925 23.3074 17.333 23.6465 17.333 24.0002C17.333 24.3538 17.1925 24.6929 16.9425 24.943C16.6924 25.193 16.3533 25.3335 15.9997 25.3335ZM15.9997 6.66683C16.3533 6.66683 16.6924 6.8073 16.9425 7.05735C17.1925 7.3074 17.333 7.64654 17.333 8.00016C17.333 8.35378 17.1925 8.69292 16.9425 8.94297C16.6924 9.19302 16.3533 9.3335 15.9997 9.3335C15.6461 9.3335 15.3069 9.19302 15.0569 8.94297C14.8068 8.69292 14.6663 8.35378 14.6663 8.00016C14.6663 7.64654 14.8068 7.3074 15.0569 7.05735C15.3069 6.8073 15.6461 6.66683 15.9997 6.66683ZM15.9997 14.6668C16.3533 14.6668 16.6924 14.8073 16.9425 15.0574C17.1925 15.3074 17.333 15.6465 17.333 16.0002C17.333 16.3538 17.1925 16.6929 16.9425 16.943C16.6924 17.193 16.3533 17.3335 15.9997 17.3335C15.6461 17.3335 15.3069 17.193 15.0569 16.943C14.8068 16.6929 14.6663 16.3538 14.6663 16.0002C14.6663 15.6465 14.8068 15.3074 15.0569 15.0574C15.3069 14.8073 15.6461 14.6668 15.9997 14.6668Z" fill="#7C3AED"/>
<path id="Vector_3" d="M29.333 1.3335H25.333V30.6668H29.333C29.6866 30.6668 30.0258 30.5264 30.2758 30.2763C30.5259 30.0263 30.6663 29.6871 30.6663 29.3335V2.66683C30.6663 2.31321 30.5259 1.97407 30.2758 1.72402C30.0258 1.47397 29.6866 1.3335 29.333 1.3335Z" fill="#1DB5BE"/>
</g>
</g>
</svg>
