<svg width="32" height="32" viewBox="0 0 32 32" fill="none" xmlns="http://www.w3.org/2000/svg">
<g id="Base feature icon">
<g id="Group">
<path id="Vector" d="M30.6663 8.00016V2.66683C30.6663 2.31321 30.5259 1.97407 30.2758 1.72402C30.0258 1.47397 29.6866 1.3335 29.333 1.3335H2.66634C2.31272 1.3335 1.97358 1.47397 1.72353 1.72402C1.47348 1.97407 1.33301 2.31321 1.33301 2.66683V8.00016H30.6663Z" fill="#1DB5BE"/>
<path id="Vector_2" d="M1.33301 10.667V29.3337C1.33301 29.6873 1.47348 30.0264 1.72353 30.2765C1.97358 30.5265 2.31272 30.667 2.66634 30.667H9.33301V10.667H1.33301Z" fill="#C4B5FD"/>
<path id="Vector_3" d="M12 30.667H29.3333C29.687 30.667 30.0261 30.5265 30.2761 30.2765C30.5262 30.0264 30.6667 29.6873 30.6667 29.3337V10.667H12V30.667Z" fill="#7C3AED"/>
</g>
</g>
</svg>
