<svg width="32" height="32" viewBox="0 0 32 32" fill="none" xmlns="http://www.w3.org/2000/svg">
<g id="Base feature icon" clip-path="url(#clip0_218_2617)">
<g id="Group">
<path id="Vector" d="M15.2083 0.175931L0.781647 6.91593C0.684087 6.96067 0.601438 7.0325 0.543541 7.12288C0.485644 7.21325 0.454938 7.31836 0.455079 7.42569C0.455219 7.53302 0.486199 7.63805 0.544332 7.72827C0.602466 7.8185 0.685302 7.89011 0.78298 7.9346L15.323 14.6253C15.7523 14.8226 16.2483 14.8226 16.6776 14.6253L31.2176 7.9346C31.3154 7.89024 31.3983 7.81873 31.4566 7.72859C31.5148 7.63844 31.5459 7.53345 31.5462 7.42612C31.5465 7.31879 31.5159 7.21364 31.4581 7.12319C31.4004 7.03274 31.3178 6.9608 31.2203 6.91593L16.7923 0.175931C16.5444 0.0600563 16.274 0 16.0003 0C15.7266 0 15.4563 0.0600563 15.2083 0.175931Z" fill="#7C3AED"/>
<path id="Vector_2" opacity="0.64" d="M31.22 15.5679L28.24 14.1759C28.0266 14.0761 27.794 14.0241 27.5584 14.0234C27.3229 14.0228 27.09 14.0734 26.876 14.1719L16.6773 18.8652C16.4649 18.9629 16.2338 19.0135 16 19.0135C15.7662 19.0135 15.5351 18.9629 15.3227 18.8652L5.12267 14.1719C4.90885 14.0736 4.67621 14.0231 4.4409 14.0237C4.20559 14.0244 3.97324 14.0763 3.76001 14.1759L0.780006 15.5679C0.682503 15.6127 0.599949 15.6847 0.54217 15.7751C0.48439 15.8656 0.453823 15.9707 0.454103 16.0781C0.454384 16.1854 0.485502 16.2904 0.543754 16.3805C0.602006 16.4707 0.684937 16.5422 0.782674 16.5865L15.3227 23.2759C15.535 23.3741 15.7661 23.4249 16 23.4249C16.2339 23.4249 16.465 23.3741 16.6773 23.2759L31.2173 16.5865C31.3151 16.5422 31.398 16.4707 31.4563 16.3805C31.5145 16.2904 31.5456 16.1854 31.5459 16.0781C31.5462 15.9707 31.5156 15.8656 31.4578 15.7751C31.4001 15.6847 31.3175 15.6127 31.22 15.5679Z" fill="#C4B5FD"/>
<path id="Vector_3" d="M31.2195 24.1441L28.2395 22.7521C28.0261 22.6524 27.7935 22.6004 27.558 22.5997C27.3224 22.599 27.0895 22.6496 26.8755 22.7481L16.6769 27.4401C16.4644 27.5378 16.2334 27.5883 15.9995 27.5883C15.7657 27.5883 15.5346 27.5378 15.3222 27.4401L5.1222 22.7468C4.90838 22.6485 4.67574 22.5979 4.44042 22.5986C4.20511 22.5993 3.97277 22.6512 3.75953 22.7507L0.77953 24.1441C0.682403 24.1891 0.60022 24.261 0.542716 24.3513C0.485213 24.4416 0.454799 24.5465 0.45508 24.6536C0.455361 24.7607 0.486325 24.8654 0.544301 24.9554C0.602277 25.0454 0.684836 25.1169 0.782198 25.1614L15.3222 31.8521C15.7515 32.0494 16.2475 32.0494 16.6769 31.8521L31.2169 25.1614C31.3142 25.1169 31.3968 25.0454 31.4548 24.9554C31.5127 24.8654 31.5437 24.7607 31.544 24.6536C31.5443 24.5465 31.5138 24.4416 31.4563 24.3513C31.3988 24.261 31.3167 24.1891 31.2195 24.1441Z" fill="#1DB5BE"/>
</g>
</g>
<defs>
<clipPath id="clip0_218_2617">
<rect width="32" height="32" fill="white"/>
</clipPath>
</defs>
</svg>
